<svg width="118" height="116" viewBox="0 0 118 116" fill="none" xmlns="http://www.w3.org/2000/svg">
<g id="tanzu-logo">
<path id="Vector" d="M76.7703 103.42H40.9503C39.5403 103.42 38.1903 102.79 37.3203 101.68L14.6703 73.27C13.7703 72.16 13.4403 70.63 13.8003 69.25L22.4403 34.45C22.7703 33.13 23.6403 32.02 24.8703 31.42L56.8803 15.37C58.1703 14.71 59.7303 14.71 61.0203 15.37L93.4203 31.42C94.6503 32.05 95.5503 33.16 95.8803 34.51L104.1 69.28C104.43 70.69 104.1 72.13 103.2 73.27L80.3403 101.68C79.5003 102.79 78.1803 103.42 76.7703 103.42ZM41.0403 98.62H76.7103L99.4803 70.3L91.2903 35.68L58.9803 19.69L27.0903 35.68L18.4803 70.33L41.0403 98.62Z" fill="#0091DA"/>
<path id="Vector_2" d="M100.08 25.03L104.13 21.67L61.3799 0.48999V5.85999L100.08 25.03Z" fill="#00C1D5"/>
<path id="Vector_3" d="M6.24002 74.77L1.02002 75.94L30.87 113.38L33.21 108.61L6.24002 74.77Z" fill="#78BE20"/>
<path id="Vector_4" d="M56.5801 5.89002V0.52002L14.3701 21.67L18.3001 25.06L56.5801 5.89002Z" fill="#00C1D5"/>
<path id="Vector_5" d="M15.45 28.96L11.37 25.45L0 71.26L5.22 70.09L15.45 28.96Z" fill="#1A428A"/>
<path id="Vector_6" d="M112.77 70.12L117.96 71.26L107.1 25.45L102.99 28.84L112.77 70.12Z" fill="#1A428A"/>
<path id="Vector_7" d="M111.66 74.77L84.4199 108.67L86.7599 113.44L116.91 75.94L111.66 74.77Z" fill="#78BE20"/>
<path id="Vector_8" d="M37.5299 110.71L35.1899 115.51H82.4099L80.0699 110.71H37.5299Z" fill="#00C1D5"/>
</g>
</svg>
